HIERARCHY
ROOT Hips
{
    OFFSET 0.000000 0.000000 0.000000
    CHANNELS 6 Xposition Yposition Zposition Zrotation Xrotation Yrotation
    JOINT Spine
    {
        OFFSET -0.000000 8.349382 0.000000
        CHANNELS 3 Zrotation Xrotation Yrotation
        JOINT Spine1
        {
            OFFSET -0.000000 23.269058 0.000000
            CHANNELS 3 Zrotation Xrotation Yrotation
            JOINT Neck
            {
                OFFSET -0.000000 23.173496 2.106681
                CHANNELS 3 Zrotation Xrotation Yrotation
                JOINT Head
                {
                    OFFSET -0.000000 14.255042 -2.036435
                    CHANNELS 3 Zrotation Xrotation Yrotation
                    End Site
                    {
                        OFFSET -0.000000 25.455433 0.000000
                    }
                }
            }
            JOINT LeftShoulder
            {
                OFFSET 3.917082 21.531742 0.000256
                CHANNELS 3 Zrotation Xrotation Yrotation
                JOINT LeftArm
                {
                    OFFSET 10.728225 0.000000 0.000000
                    CHANNELS 3 Zrotation Xrotation Yrotation
                    JOINT LeftForeArm
                    {
                        OFFSET 30.046112 0.000000 0.000000
                        CHANNELS 3 Zrotation Xrotation Yrotation
                        JOINT LeftHand
                        {
                            OFFSET 29.023712 0.000000 0.000000
                            CHANNELS 3 Zrotation Xrotation Yrotation
                            End Site
                            {
                                OFFSET 15.273261 0.000000 0.000000
                            }
                        }
                    }
                }
            }
            JOINT RightShoulder
            {
                OFFSET -3.920664 21.531742 0.000256
                CHANNELS 3 Zrotation Xrotation Yrotation
                JOINT RightArm
                {
                    OFFSET -10.728225 0.000000 0.000000
                    CHANNELS 3 Zrotation Xrotation Yrotation
                    JOINT RightForeArm
                    {
                        OFFSET -30.046112 0.000000 0.000000
                        CHANNELS 3 Zrotation Xrotation Yrotation
                        JOINT RightHand
                        {
                            OFFSET -29.023712 0.000000 0.000000
                            CHANNELS 3 Zrotation Xrotation Yrotation
                            End Site
                            {
                                OFFSET -15.273261 0.000000 0.000000
                            }
                        }
                    }
                }
            }
        }
    }
    JOINT LeftUpLeg
    {
        OFFSET 10.182174 0.000000 0.000000
        CHANNELS 3 Zrotation Xrotation Yrotation
        JOINT LeftLeg
        {
            OFFSET -0.000000 -49.689274 0.000000
            CHANNELS 3 Zrotation Xrotation Yrotation
            JOINT LeftFoot
            {
                OFFSET -0.000000 -39.155319 0.000000
                CHANNELS 3 Zrotation Xrotation Yrotation
                JOINT LeftToeBase
                {
                    OFFSET -0.000000 -6.618412 15.273261
                    CHANNELS 3 Zrotation Xrotation Yrotation
                    End Site
                    {
                        OFFSET -0.000000 0.000000 4.072869
                    }
                }
            }
        }
    }
    JOINT RightUpLeg
    {
        OFFSET -10.182174 0.000000 0.000000
        CHANNELS 3 Zrotation Xrotation Yrotation
        JOINT RightLeg
        {
            OFFSET -0.000000 -49.689274 0.000000
            CHANNELS 3 Zrotation Xrotation Yrotation
            JOINT RightFoot
            {
                OFFSET -0.000000 -39.155319 0.000000
                CHANNELS 3 Zrotation Xrotation Yrotation
                JOINT RightToeBase
                {
                    OFFSET -0.000000 -6.618412 15.273261
                    CHANNELS 3 Zrotation Xrotation Yrotation
                    End Site
                    {
                        OFFSET -0.000000 0.000000 4.072869
                    }
                }
            }
        }
    }
}
MOTION
Frames:    14
Frame Time:    0.008333
16.775822    97.771683    26.467571    -0.484470    0.714895    95.276138    -0.434681    -2.004503    0.303616    0.946295    2.923472    0.287302    3.558604    10.800964    1.744550    -0.602516    -3.618477    1.529366    16.693218    -2.771794    -19.407087    -13.587708    -4.688590    8.675241    5.666564    -6.168818    -5.023990    -5.438159    -6.083547    3.431663    -15.690613    3.154528    -20.497622    18.949511    -1.686690    2.880347    -6.060728    -3.506286    5.594625    -3.711512    -3.307118    2.989361    3.280135    5.475428    -5.707549    -5.304379    -1.585615    -2.402261    1.615868    -3.470631    18.884384    0.000000    0.000000    0.000000    -3.358830    2.749426    -3.255410    5.283251    4.464701    1.550417    -2.206698    -5.803011    -9.252362    0.000000    0.000000    0.000000    
16.711302    97.767517    26.460897    -0.492505    0.698685    95.255394    -0.459954    -2.012522    0.319528    1.057887    2.983032    0.300138    3.426220    10.569167    1.752869    -0.549140    -3.369738    1.547942    16.528185    -2.787433    -19.363523    -13.825257    -4.693714    8.500166    5.656236    -6.462349    -5.093507    -5.892029    -6.372463    3.134153    -15.695396    3.168029    -20.451969    19.166052    -1.926186    3.013935    -5.848089    -3.160068    5.520072    -3.584783    -2.977167    3.162772    3.288908    5.433069    -5.773891    -5.305846    -1.599025    -2.336507    1.627060    -3.477812    18.893927    0.000000    0.000000    0.000000    -3.321038    2.709733    -3.346172    5.199489    4.426035    1.481718    -2.137962    -5.787129    -9.039307    0.000000    0.000000    0.000000    
16.675615    97.765030    26.456711    -0.499687    0.692015    95.242996    -0.459024    -2.014262    0.323691    1.085725    3.008495    0.303414    3.368813    10.493126    1.750442    -0.529039    -3.314988    1.549802    16.454987    -2.814510    -19.332489    -13.939913    -4.612258    8.414916    5.632957    -6.577233    -5.091102    -5.668308    -6.478299    3.050106    -15.692095    3.145943    -20.433424    19.245138    -1.960863    3.055300    -5.688635    -3.220899    5.551454    -3.721691    -3.047907    3.163011    3.291554    5.401535    -5.781973    -5.310432    -1.590700    -2.332577    1.630731    -3.486202    18.912004    0.000000    0.000000    0.000000    -3.321570    2.680500    -3.299266    5.207692    4.425331    1.484607    -2.158562    -5.783387    -9.075254    0.000000    0.000000    0.000000    
16.640690    97.760300    26.452154    -0.512286    0.688237    95.228355    -0.468710    -2.012153    0.338384    1.109747    3.007928    0.317640    3.378434    10.443744    1.716615    -0.594638    -3.253892    1.501640    16.418966    -2.823135    -19.346731    -14.018044    -4.628115    8.352727    5.602790    -6.611949    -5.079967    -5.578802    -6.509657    2.991000    -15.664899    3.145529    -20.406609    19.334440    -1.923448    3.071028    -5.613904    -3.210704    5.542997    -3.823872    -3.050378    3.336849    3.288629    5.358841    -5.774859    -5.313349    -1.564350    -2.310024    1.667398    -3.502251    18.896246    0.000000    0.000000    0.000000    -3.329948    2.641558    -3.222014    5.221465    4.436627    1.482226    -2.188012    -5.803772    -9.129577    0.000000    0.000000    0.000000    
16.610027    97.755310    26.448908    -0.510152    0.687452    95.216362    -0.484005    -1.976886    0.350605    1.135113    2.961883    0.329664    3.347857    10.436024    1.705364    -0.564445    -3.237639    1.496563    16.403955    -2.730567    -19.318453    -14.096063    -4.693059    8.206624    5.612655    -6.568917    -4.949625    -5.461808    -6.449167    2.562518    -15.610816    3.172716    -20.401913    19.386616    -1.909465    3.130934    -5.567245    -3.403965    5.578893    -3.999930    -3.251818    3.408646    3.287101    5.340398    -5.772731    -5.317082    -1.557758    -2.307172    1.664953    -3.512258    18.900227    0.000000    0.000000    0.000000    -3.336458    2.618473    -3.208752    5.225906    4.459119    1.518818    -2.173207    -5.834795    -9.160769    0.000000    0.000000    0.000000    
16.576376    97.749207    26.444132    -0.514719    0.690086    95.206879    -0.480226    -1.952448    0.349134    1.118545    2.938448    0.328617    3.236871    10.170185    1.632478    -0.364116    -2.826294    1.454226    16.396345    -2.741008    -19.295025    -14.157035    -4.663163    8.143859    5.661222    -6.599758    -4.984426    -5.402473    -6.493330    2.955630    -15.583832    3.169201    -20.369713    19.478365    -1.841686    3.163058    -5.595141    -3.421560    5.578711    -3.896434    -3.267631    3.486170    3.282881    5.306449    -5.747944    -5.328588    -1.527222    -2.329659    1.691840    -3.531960    18.900589    0.000000    0.000000    0.000000    -3.348067    2.583085    -3.187562    5.231247    4.490968    1.515335    -2.165437    -5.864690    -9.160134    0.000000    0.000000    0.000000    
16.543373    97.743530    26.440269    -0.520870    0.691329    95.211220    -0.482111    -1.925904    0.346602    1.114499    2.907676    0.326633    3.317061    10.356420    1.715969    -0.528165    -3.173726    1.513323    16.374395    -2.752974    -19.288698    -14.182271    -4.639078    8.084032    5.670152    -6.555149    -4.917403    -5.231562    -6.445609    2.919570    -15.541396    3.176295    -20.376688    19.523447    -1.829849    3.232557    -5.606336    -3.441378    5.611273    -3.939209    -3.285866    3.464765    3.275503    5.271389    -5.717346    -5.324490    -1.505482    -2.343884    1.711733    -3.542182    18.876356    0.000000    0.000000    0.000000    -3.390770    2.547044    -3.066957    5.321655    4.548753    1.666904    -2.261618    -5.920056    -9.445962    0.000000    0.000000    0.000000    
16.513554    97.738602    26.437115    -0.515188    0.692243    95.204407    -0.459185    -1.882169    0.344950    1.012394    2.865757    0.327238    3.386843    10.293386    1.761420    -0.465937    -3.114433    1.565590    16.458326    -2.839164    -19.321104    -14.220409    -4.598625    8.107882    5.647397    -6.479468    -4.850979    -5.061595    -6.369248    2.906250    -15.394913    3.156436    -20.306873    19.522198    -1.790651    3.216746    -5.645642    -3.407382    5.625977    -4.033350    -3.253623    3.510233    3.277710    5.256385    -5.701185    -5.334887    -1.494170    -2.364736    1.730487    -3.547790    18.877207    0.000000    0.000000    0.000000    -3.393794    2.515129    -3.074879    5.310263    4.600565    1.689260    -2.260129    -5.960504    -9.434678    0.000000    0.000000    0.000000    
16.481689    97.733727    26.432896    -0.516737    0.696558    95.199753    -0.470230    -1.846251    0.344915    1.020539    2.829460    0.327413    3.344697    10.252949    1.761632    -0.417619    -3.084344    1.575214    16.434664    -2.862052    -19.315252    -14.173929    -4.620504    8.061063    5.602919    -6.379755    -4.756384    -4.903516    -6.271902    2.903690    -15.370071    3.152250    -20.298162    19.551863    -1.780420    3.247345    -5.708235    -3.378880    5.677071    -4.141274    -3.219923    3.429680    3.268620    5.233591    -5.665174    -5.337302    -1.484469    -2.388804    1.738286    -3.554338    18.872425    0.000000    0.000000    0.000000    -3.368423    2.479614    -3.213995    5.223834    4.621200    1.552403    -2.188388    -5.977564    -9.159683    0.000000    0.000000    0.000000    
16.451225    97.730644    26.429090    -0.523874    0.705441    95.198677    -0.477925    -1.827701    0.339274    1.012057    2.824098    0.322082    3.341495    10.203487    1.780982    -0.438175    -3.105274    1.590465    16.449684    -2.900678    -19.264748    -14.130223    -4.650914    7.982211    5.524446    -6.315842    -4.659603    -4.669363    -6.212866    2.975417    -15.361124    3.143544    -20.293039    19.586683    -1.775862    3.283855    -5.757120    -3.285677    5.701818    -4.239512    -3.123628    3.366519    3.257840    5.202694    -5.636297    -5.341793    -1.469407    -2.427927    1.750329    -3.551435    18.875969    0.000000    0.000000    0.000000    -3.380180    2.435526    -3.229386    5.216421    4.664223    1.543124    -2.224160    -6.007648    -9.130942    0.000000    0.000000    0.000000    
16.426771    97.727844    26.431089    -0.513133    0.694014    95.190956    -0.463439    -1.805106    0.332472    0.992451    2.823363    0.315347    3.329791    10.175816    1.792109    -0.428505    -3.117176    1.603442    16.469412    -2.925835    -19.241488    -14.049032    -4.680368    7.943280    5.442892    -6.223161    -4.536404    -4.541635    -6.122314    2.882174    -15.333164    3.126469    -20.270853    19.587240    -1.815313    3.317828    -5.833404    -3.123163    5.714418    -4.174254    -2.954102    3.349906    3.274602    5.200503    -5.606014    -5.348580    -1.468538    -2.459498    1.762262    -3.564151    18.876745    0.000000    0.000000    0.000000    -3.365760    2.415482    -3.234290    5.210403    4.692988    1.586811    -2.227792    -6.006909    -9.171309    0.000000    0.000000    0.000000    
16.399498    97.727150    26.430195    -0.511856    0.690601    95.190544    -0.463572    -1.774076    0.321769    1.008735    2.790328    0.304488    3.280685    10.147562    1.810002    -0.434236    -3.098827    1.623108    16.428915    -2.933271    -19.227327    -13.930298    -4.700713    7.908206    5.375521    -6.060681    -4.306321    -4.549430    -5.957402    2.476749    -15.333909    3.132447    -20.257919    19.598532    -1.581114    3.345217    -5.946218    -3.202313    5.757374    -4.329507    -3.025006    3.219477    3.276283    5.185490    -5.583376    -5.348059    -1.469229    -2.477458    1.757838    -3.559053    18.867689    0.000000    0.000000    0.000000    -3.367985    2.388951    -3.226070    5.218618    4.712260    1.592770    -2.259223    -6.003987    -9.183397    0.000000    0.000000    0.000000    
16.374056    97.729813    26.432192    -0.507856    0.679983    95.185883    -0.487316    -1.754599    0.320143    1.108694    2.790846    0.300727    3.416517    10.038677    1.839155    -0.880746    -2.928138    1.568031    16.323870    -2.963958    -19.214783    -13.809502    -4.635639    7.867033    5.367366    -6.093008    -4.225007    -4.584628    -6.006877    2.785022    -15.433895    3.130810    -20.285698    19.625460    -1.540063    3.402625    -6.005957    -3.137751    5.777298    -4.433198    -2.958357    3.195231    3.289037    5.172472    -5.567319    -5.353667    -1.466804    -2.471273    1.763417    -3.549280    18.849606    0.000000    0.000000    0.000000    -3.358057    2.373160    -3.241289    5.215700    4.711865    1.595041    -2.242080    -5.973265    -9.151346    0.000000    0.000000    0.000000    
16.350882    97.733734    26.433548    -0.505961    0.668696    95.186951    -0.473937    -1.736066    0.316066    1.049205    2.781384    0.297914    3.569399    10.011743    1.870006    -1.036208    -2.938335    1.564230    16.453188    -2.964091    -19.215042    -13.781316    -4.655485    7.837109    5.326331    -6.062908    -4.080459    -4.699659    -5.986466    2.753466    -15.345222    3.104957    -20.224455    19.558563    -1.502341    3.372519    -6.064431    -3.081536    5.769803    -4.445066    -2.901090    3.225905    3.304435    5.163872    -5.575423    -5.357180    -1.477614    -2.491916    1.755164    -3.533430    18.866039    0.000000    0.000000    0.000000    -3.350794    2.363956    -3.205074    5.227117    4.693567    1.549712    -2.240716    -5.938129    -9.145446    0.000000    0.000000    0.000000    
